<svg xmlns="http://www.w3.org/2000/svg" viewBox="0 0 140.8 140.8">
  <path d="M70.4 0L0 70.4l70.4 70.4 70.4-70.4L70.4 0zM2.2 70.4L70.4 2.2l68.2 68.2-68.2 68.2L2.2 70.4z" class="st0"/>
  <path d="M67.6 48.5h-8.2v-5.4H67v-2.4h-7.6v-4.9h8v-2.5H56.8v17.6h10.8zm5.6 2.4l4.8-7 5 7h3.3l-6.6-9.2 5.8-8.4h-3.1l-4.3 6.5-4.5-6.5h-3.3l6.1 8.6-6.3 9zM60.5 67.4c0-3.5-2.5-5.5-6.6-5.5h-5.6v17.6H51V73h2.6c4.3 0 6.9-1.8 6.9-5.6zm-7 3.2h-2.6v-6.3h2.9c2.5 0 3.9 1 3.9 3.1 0 2.2-1.4 3.2-4.2 3.2zm20.7 6.5h-6.9V61.9h-2.6v17.6h9.5zm10.5-15.5c-4.5 0-8.8 3.3-8.8 9.1s4.3 9.1 8.8 9.1c4.5 0 8.9-3.4 8.9-9.1 0-5.8-4.4-9.1-8.9-9.1zm0 15.7c-3.2 0-6-2.3-6-6.5s2.8-6.6 6-6.6 6.1 2.3 6.1 6.6c0 4.1-2.9 6.5-6.1 6.5zM69 95.7c0-3.4-2.4-5.2-6.4-5.2H57v17.6h2.7v-8.6l6.5 8.6h3.3l-5.8-7.4c3.4-.3 5.3-2 5.3-5zm-9.4 3v-5.8h2.8c2.6 0 3.8 1 3.8 2.9 0 2-1.4 2.9-4.4 2.9h-2.2zm16.7 1.6h7.6v-2.5h-7.6v-4.9h7.9v-2.4H73.6v17.6h10.9v-2.4h-8.2z" class="st0"/>
  <path d="M84.7 67.2c-2 0-3.6 1.6-3.6 3.6s1.6 3.6 3.6 3.6 3.6-1.6 3.6-3.6-1.6-3.6-3.6-3.6z" class="st0"/>
</svg>
