<svg xmlns="http://www.w3.org/2000/svg" viewBox="0 0 22.87 22.87">
  <defs>
    <clipPath id="a">
      <path fill="none" d="M0 0h22.87v22.87H0z"/>
    </clipPath>
  </defs>
  <g clip-path="url(#a)">
    <path d="M11.44 22.87a11.44 11.44 0 1 1 11.43-11.44 11.45 11.45 0 0 1-11.43 11.44zm0-21.87a10.44 10.44 0 1 0 10.43 10.43A10.45 10.45 0 0 0 11.44 1z" class="cls-3"/>
    <path d="M14.7 4.43v2.29c0 .1 0 .13-.13.12H13.4a1.75 1.75 0 0 0-.4.05.52.52 0 0 0-.44.52v1.52c0 .09.06.08.11.08h2.06c-.09.81-.17 1.61-.26 2.41h-1.93v7.01H9.91v-6.99H8.17v-2.3c0-.1 0-.12.13-.12h1.5c.1 0 .13 0 .13-.13V6.94a3.25 3.25 0 0 1 .34-1.36 1.85 1.85 0 0 1 1.11-.94 7.52 7.52 0 0 1 .85-.19h.11z" class="cls-3"/>
  </g>
</svg>
