<svg xmlns="http://www.w3.org/2000/svg" viewBox="0 0 101.4 101.4">
  <path d="M50.7 0C22.7 0 0 22.7 0 50.7s22.7 50.7 50.7 50.7 50.7-22.7 50.7-50.7S78.6 0 50.7 0zm0 99.8c-27.1 0-49.1-22-49.1-49.1s22-49.1 49.1-49.1 49.1 22 49.1 49.1-22 49.1-49.1 49.1z" class="st0"/>
  <path d="M63.2 24.8h3.7v24.6h-3.7zM46.6 35H35.4V24.8h-3.8v24.6h3.8v-11h11.2v11h3.8V24.8h-3.8zm2.8 21.4h-4.6l-9 11.2V56.4H32V81h3.8V68.8L44.9 81h4.8l-10-12.9zM59.7 70h10.6v-3.4H59.7v-6.8h11.1v-3.4H56V81h15.2v-3.4H59.7zm5.4-50.2c1.7 0 3-1.3 3-3s-1.3-3-3-3-3 1.3-3 3 1.3 3 3 3z" class="st0"/>
</svg>
