<svg xmlns="http://www.w3.org/2000/svg" xmlns:xlink="http://www.w3.org/1999/xlink" viewBox="0 0 22.8 22.8">
  <defs>
    <path id="a" d="M0 0h22.8v22.8H0z"/>
  </defs>
  <clipPath id="b">
    <use overflow="visible" xlink:href="#a"/>
  </clipPath>
  <g clip-path="url(#b)">
    <path d="M16 11.4c0 2.6-2.1 4.7-4.6 4.7-2.6 0-4.7-2.1-4.7-4.6s2.1-4.7 4.6-4.7c2.6-.1 4.7 2 4.7 4.6m1 0c0-3.1-2.5-5.7-5.7-5.7-3.1 0-5.7 2.5-5.7 5.7 0 3.1 2.5 5.7 5.7 5.7s5.7-2.6 5.7-5.7m1.6-6.2c0-.6-.4-1-.9-1.1h-.1c-.6 0-1 .5-1 1s.5 1 1 1c.6.1 1-.3 1-.9M21.7 16c0 3.2-2.6 5.7-5.7 5.7H6.8c-3.1.1-5.7-2.4-5.8-5.5V6.8C1 4 2.9 1.6 5.7 1.1c.3 0 .7-.1 1-.1H16c1.6 0 3 .6 4.1 1.8.8.8 1.3 1.8 1.5 2.9.1.4.1.8.1 1.2V16m1-9.4c0-.5-.1-1.1-.2-1.6-.3-1.4-1.1-2.6-2.2-3.5-1.2-1-2.6-1.6-4.2-1.6H6.8C6.4 0 6 0 5.6.1c-1.6.3-3 1.1-4 2.3C.5 3.6 0 5.2 0 6.8V16c0 .6.1 1.1.2 1.7.3 1.4 1.2 2.7 2.3 3.6 1.2 1 2.7 1.5 4.2 1.5h9.4c.7 0 1.4-.1 2-.3 1.4-.4 2.5-1.3 3.4-2.4.8-1.1 1.3-2.5 1.3-3.9-.1-3.2-.1-6.4-.1-9.6" class="st1"/>
  </g>
  <path d="M1 16V6.8c0-.4 0-.8.1-1.2.2-1.1.7-2.1 1.5-2.9C3.7 1.6 5.2 1 6.7 1H16c.4 0 .7.1 1.1.1 2.7.5 4.7 2.9 4.7 5.6v9.5c-.1 3.1-2.7 5.6-5.8 5.5H6.7C3.6 21.7 1 19.2 1 16M0 6.6v9.5c0 1.4.5 2.8 1.3 3.9.8 1.2 2 2 3.4 2.4.6.2 1.3.3 2 .3h9.4c1.5 0 3-.5 4.2-1.5 1.1-.9 2-2.2 2.3-3.6.1-.5.2-1.1.2-1.7V6.7c0-1.6-.5-3.1-1.6-4.3-1-1.2-2.4-2.1-4-2.3-.4-.1-.8-.1-1.2-.1H6.6c-1.5 0-3 .6-4.2 1.6C1.4 2.5.6 3.7.2 5.1c-.1.5-.2 1-.2 1.5" class="st1"/>
</svg>
