<svg xmlns="http://www.w3.org/2000/svg" viewBox="0 0 105.4 103.9">
  <path d="M0 44.2l7.2 4.6.2-1.2-1.7-1 .5-2.9 1.9-.4.2-1.3L0 44v.2zm5.2-.4L4.8 46l-2.6-1.6 3-.6zM6 27.1l4 3.8-5.6-.4-.1.2 3.9 4-5.5-.7-.5 1.2 8.3.8.1-.2-4-4.1 5.7.4.1-.2L6.5 26zm3.3-5.2l4.4 7.4.7-1-1-1.6 1.7-2.4 1.9.5.8-1-8.4-1.9h-.1zm4.8 2l-1.3 1.8-1.6-2.6 2.9.8zm8.7-5.3l-4.1-.5c1-1.2 1.1-2.3.2-3.3-1-1.1-2.4-.9-3.6.3l-1.8 1.7 5.4 5.6.8-.8-2.6-2.6 4.7.7 1-1.1zm-5.3-.6l-.7.7-1.8-1.8.9-.9c.8-.8 1.5-.9 2.1-.3.6.7.5 1.4-.5 2.3zm7.1-.9l-1.9-4.4 4.4 2.8.2-.1-.9-5.2 3.3 3.6 1-.7-5.5-5.8-.2.1 1 6.3-5.3-3.4-.2.1 3.1 7.4zm12.5-6.6l.4-5.8L41 9.3l.2-.1.5-8.3-1.2.4-.2 5.5-3.4-4.5h-.2L36.3 8l-3.2-4.6-1.2.4 4.9 6.7zm13.2-2.7l-.1-1.1-3.6.3-.2-2.3 3.3-.3-.1-1.1-3.3.3-.2-2.2 3.5-.3-.1-1-4.7.4.7 7.7zm6.5-1l-3-.1L54 0h-1.1l-.3 7.8 4.2.1zm4.6 2c1.2.2 2.4-.1 3.3-.9L64 7c-.7.6-1.4.8-2.3.7-1.5-.3-2.4-1.6-2-3.3.3-1.7 1.7-2.6 3.2-2.3.8.2 1.5.6 1.8 1.3l.9-.6c-.5-1-1.3-1.6-2.6-1.8-2.1-.4-4.1.8-4.5 3.2-.5 2.3.8 4.2 2.9 4.6zm7.8 2.4c1.9.8 4.2.1 5.1-2.2 1-2.4-.2-4.5-2.1-5.2-1.8-.8-4.1-.2-5.1 2.2-1 2.3.2 4.4 2.1 5.2zm-1-4.8c.7-1.7 2.3-2.2 3.6-1.7 1.3.5 2.1 2 1.4 3.7-.7 1.7-2.3 2.2-3.6 1.6-1.3-.4-2.1-1.9-1.4-3.6zm6.9 7.3l3.4-3.4-1 5.2.2.1 4.4-2.8-2 4.4 1 .7 3.3-7.3-.2-.1-5.4 3.2L80 7.5l-.2-.1-5.7 5.7zm10.8 8.9l.8-.8-2.6-2.5 1.6-1.7 2.4 2.3.8-.7-2.4-2.4 1.5-1.5 2.5 2.4.8-.7-3.4-3.3-5.4 5.5zm4.2 5.5l.6 1 5.6-3.7 1.3 2 .9-.6-3.2-5-.9.6 1.3 2zm6.1 2.3c-2.4 1-3 3.3-2.3 5.1.8 1.9 2.8 3.1 5.2 2.1 2.4-1 3-3.3 2.3-5.1-.8-1.8-2.9-3-5.2-2.1zm4.1 2.5c.5 1.3.1 2.9-1.7 3.6-1.7.7-3.2-.1-3.7-1.4-.5-1.3-.1-2.8 1.7-3.5 1.8-.7 3.2 0 3.7 1.3zm-3.4 11.6l4.8.3-4.5 2.7v.1l5 1.6-4.6 1.4.1 1.1 7.7-2.3-.1-.2-6-1.9 5.5-3.2-.1-.2-8-.6zm8.5 8.3l-5 2.5-2.9-.2-.1 1.2 3 .2 4.6 3.1.1-1.4-3.5-2.2 3.7-1.8zm-9.6 12.6l4.3 3.8-5.7.1-.1.2 6.5 5.3.4-1.2-4.4-3.3 5.7-.2.1-.2-4.4-3.6 5.6.1.4-1.2h-8.4zm-5.6 12.4l.9.5 1.9-3.1 2 1.2-1.7 2.9.9.5 1.7-2.9 1.9 1.1-1.8 3.1.9.5 2.4-4-6.7-4zm-3.1 4c-1.1 1.2-1.2 2.5-.1 3.5.7.6 1.5.7 2.4.1-.3.8 0 1.4.6 1.9 1 .8 2.1.5 3.2-.7l1.6-1.9-5.9-5-1.8 2.1zm6.2 3.1l-.8 1c-.6.7-1.3.9-1.8.4-.6-.5-.5-1.2.1-1.9l.8-1 1.7 1.5zm-2.5-2.1l-1 1.2c-.6.7-1.3.9-1.9.4-.6-.5-.5-1.2.1-1.9l1-1.2 1.8 1.5zm-8.2 6.6c-.5-.5-.4-1.3.4-1.9.6-.5 1.3-.8 2.2-.7l-.1-1.1c-.9 0-1.9.1-2.9 1-1.2 1.1-1.5 2.5-.5 3.6 1.9 2.1 4.2-1.5 5.4-.2.5.5.3 1.3-.4 1.9-.6.5-1.2.7-1.9.7l.1 1.1c.8 0 1.7-.2 2.5-.9 1.2-1.1 1.4-2.6.6-3.6-1.9-2.3-4.2 1.4-5.4.1zm-4.907 1.007l.986-.684 4.443 6.41-.986.684zM77.1 98.6L74 92.7l-1.1.5 3.1 5.9-2.1 1.1.5 1 5.3-2.8-.5-.9zm-12.7-2l.4 1 3.4-1.1.8 2.2-3.2 1.1.3 1 3.2-1 .7 2-3.4 1.1.3 1 4.5-1.4-2.4-7.4zM30.3 39.4h-.4L22 51.1h3.3l1-1.6H30l.4 1.6h3l-3.1-11.7zm-2.7 7.8l1.6-2.5.5 2.5h-2.1zm18.1-4.3c0-1.9-1.5-3.3-4.4-3.3h-3.9L35 51.2h3l.8-3.9h.6l1.5 3.9h3.5l-2-4.2c1.9-.6 3.3-1.8 3.3-4.1zm-5.4 1.7h-1l.5-2.4h1.3c1 0 1.5.3 1.5 1 0 .9-.6 1.4-2.3 1.4zm12.4 1.9l-2.3-7.1H50l-4.5 11.8h2.9l1.7-4.8 1.7 4.8h.3l3.3-4.4-.3 4.4H58l.3-11.8h-.4zm7.6 4.7h2.9l2.3-11.6h-2.9zm9.9-5.6l4.7 5.8h.4l2.3-11.8h-2.9l-1.1 5.6-4.7-5.8h-.4l-2.3 11.8h2.9zm-33.5 9.6h-3.9l-2.3 11.5h2.9l.8-3.9h.6l1.5 3.9h3.5l-2-4.2c1.9-.5 3.3-1.8 3.3-4 0-1.9-1.5-3.3-4.4-3.3zm-.9 5h-1l.5-2.4h1.3c1 0 1.5.3 1.5 1-.1.9-.6 1.4-2.3 1.4zm6.3 6.6h3l2.3-11.6h-3zM58 58c0-1.5-1.2-2.8-3.9-2.8h-3.8L48 66.8h5.1c2.5 0 4.5-1.2 4.5-3.5 0-.8-.4-1.7-1.4-2.3 1.1-.5 1.8-1.5 1.8-3zm-4.9 6.2h-1.7l.4-2.1h1.4c.9 0 1.3.3 1.3.8.1.9-.5 1.3-1.4 1.3zm.3-4.5h-1.1l.4-1.9h1c.8 0 1.3.3 1.3.8-.1.7-.5 1.1-1.6 1.1zm8.3-4.5l-2.3 11.6h2.9l2.3-11.6zm7.7 3.3c0-.6.5-.9 1.2-.9.9 0 1.6.3 2.3 1.1l2-1.9c-1.1-1.3-2.6-1.9-4.2-1.9-2.5 0-4.4 1.5-4.4 3.9 0 3.3 4.5 2.8 4.5 4.5 0 .6-.4.9-1.2.9-1.1 0-1.9-.5-2.6-1.4l-2.1 1.9c1.1 1.3 2.4 2.1 4.6 2.1 2.5 0 4.4-1.6 4.4-4 0-3.2-4.5-2.8-4.5-4.3z" class="st0"/>
</svg>
