<svg xmlns="http://www.w3.org/2000/svg" viewBox="0 0 121.9 78.6">
  <path d="M0 33.8h6.5v18.7h5V33.8H18v-4.5H0zm53.1-4.9L42.3 52.5h5.3l1.6-4h8.1l1.7 4h5.5L53.7 28.9h-.6zm-2.4 15.6l2.6-6.4 2.6 6.4h-5.2zm23.1 8.4l10.9-23.6h-5.5l-5.6 13.4L68 29.3h-5.6l10.7 23.6zm39.9-4.8V29.3h-5v23.2h13.2v-4.4z" class="st0"/>
  <path d="M99.2 42.7h3.1v-4.4h-3.1v-4.5h3.6v-4.5h-3.6V2.4h-9.7v1.3h8.3v25.6h-9.7v23.2h9.7v24.7H24.1V52.5h3.6V41.8l7.1 10.8h5.9l-6.5-9.2c3.8-.7 5.9-3 5.9-6.8 0-4.9-3.5-7.3-9-7.3H24V3.7h50.1v2.4L82.5 3l-8.4-3v2.4H22.7v76.1h76.5v-26h3.9V48h-3.9v-5.3zm-71.5-9h3.1c3 0 4.3 1.1 4.3 3.1 0 2.2-1.5 3.2-4.9 3.2h-2.4v-6.3zm65.5.1h4.7v4.5h-4.7v-4.5zm0 14.3v-5.3h4.7v5.3h-4.7z" class="st0"/>
</svg>
