<?xml version="1.0" encoding="utf-8"?>
<!-- Generator: Adobe Illustrator 22.1.0, SVG Export Plug-In . SVG Version: 6.00 Build 0)  -->
<svg version="1.1" id="Ebene_1" xmlns="http://www.w3.org/2000/svg" xmlns:xlink="http://www.w3.org/1999/xlink" x="0px" y="0px"
	 viewBox="0 0 105.4 103.9" style="enable-background:new 0 0 105.4 103.9;" xml:space="preserve">
<style type="text/css">
	.st0{fill:none;}
	.st1{fill:#3D3D3D;}
</style>
<g>
	<path class="st1" d="M0,44.2l7.2,4.6l0.2-1.2l-1.7-1l0.5-2.9l1.9-0.4l0.2-1.3L0,44L0,44.2z M5.2,43.8L4.8,46l-2.6-1.6L5.2,43.8z"/>
	<polygon class="st1" points="6,27.1 10,30.9 4.4,30.5 4.3,30.7 8.2,34.7 2.7,34 2.2,35.2 10.5,36 10.6,35.8 6.6,31.7 12.3,32.1 
		12.4,31.9 6.5,26 	"/>
	<path class="st1" d="M9.3,21.9l4.4,7.4l0.7-1l-1-1.6l1.7-2.4l1.9,0.5l0.8-1l-8.4-1.9L9.3,21.9z M14.1,23.9l-1.3,1.8l-1.6-2.6
		L14.1,23.9z"/>
	<path class="st1" d="M18.9,14.8c-1-1.1-2.4-0.9-3.6,0.3l-1.8,1.7l5.4,5.6l0.8-0.8L17.1,19l4.7,0.7l1-1l-4.1-0.5
		C19.7,16.9,19.8,15.8,18.9,14.8z M17.5,18l-0.7,0.7l-1.8-1.8l0.9-0.9c0.8-0.8,1.5-0.9,2.1-0.3C18.6,16.4,18.5,17.1,17.5,18z"/>
	<polygon class="st1" points="25,7.4 26,13.7 20.7,10.3 20.5,10.4 23.6,17.8 24.6,17.1 22.7,12.7 27.1,15.5 27.3,15.4 26.4,10.2 
		29.7,13.8 30.7,13.1 25.2,7.3 	"/>
	<polygon class="st1" points="37.5,4.7 41,9.3 41.2,9.2 41.7,0.9 40.5,1.3 40.3,6.8 36.9,2.3 36.7,2.4 36.3,8 33.1,3.4 31.9,3.8 
		36.8,10.5 37.1,10.5 	"/>
	<polygon class="st1" points="50.3,7.8 50.2,6.7 46.6,7 46.4,4.7 49.7,4.4 49.6,3.3 46.3,3.6 46.1,1.4 49.6,1.1 49.5,0.1 44.8,0.5 
		45.5,8.2 	"/>
	<polygon class="st1" points="56.8,6.8 53.8,6.7 54,0 52.9,0 52.6,7.8 56.8,7.9 	"/>
	<path class="st1" d="M61.4,8.8c1.2,0.2,2.4-0.1,3.3-0.9L64,7c-0.7,0.6-1.4,0.8-2.3,0.7c-1.5-0.3-2.4-1.6-2-3.3
		c0.3-1.7,1.7-2.6,3.2-2.3c0.8,0.2,1.5,0.6,1.8,1.3l0.9-0.6C65.1,1.8,64.3,1.2,63,1c-2.1-0.4-4.1,0.8-4.5,3.2
		C58,6.5,59.3,8.4,61.4,8.8z"/>
	<path class="st1" d="M69.2,11.2c1.9,0.8,4.2,0.1,5.1-2.2c1-2.4-0.2-4.5-2.1-5.2C70.4,3,68.1,3.6,67.1,6
		C66.1,8.3,67.3,10.4,69.2,11.2z M68.2,6.4c0.7-1.7,2.3-2.2,3.6-1.7c1.3,0.5,2.1,2,1.4,3.7c-0.7,1.7-2.3,2.2-3.6,1.6
		C68.3,9.6,67.5,8.1,68.2,6.4z"/>
	<polygon class="st1" points="75.1,13.7 78.5,10.3 77.5,15.5 77.7,15.6 82.1,12.8 80.1,17.2 81.1,17.9 84.4,10.6 84.2,10.5 
		78.8,13.7 80,7.5 79.8,7.4 74.1,13.1 	"/>
	<polygon class="st1" points="85.9,22.6 86.7,21.8 84.1,19.3 85.7,17.6 88.1,19.9 88.9,19.2 86.5,16.8 88,15.3 90.5,17.7 91.3,17 
		87.9,13.7 82.5,19.2 	"/>
	<polygon class="st1" points="90.1,28.1 90.7,29.1 96.3,25.4 97.6,27.4 98.5,26.8 95.3,21.8 94.4,22.4 95.7,24.4 	"/>
	<path class="st1" d="M96.2,30.4c-2.4,1-3,3.3-2.3,5.1c0.8,1.9,2.8,3.1,5.2,2.1c2.4-1,3-3.3,2.3-5.1C100.6,30.7,98.5,29.5,96.2,30.4
		z M100.3,32.9c0.5,1.3,0.1,2.9-1.7,3.6c-1.7,0.7-3.2-0.1-3.7-1.4c-0.5-1.3-0.1-2.8,1.7-3.5C98.4,30.9,99.8,31.6,100.3,32.9z"/>
	<polygon class="st1" points="96.9,44.5 101.7,44.8 97.2,47.5 97.2,47.6 102.2,49.2 97.6,50.6 97.7,51.7 105.4,49.4 105.3,49.2 
		99.3,47.3 104.8,44.1 104.7,43.9 96.7,43.3 	"/>
	<polygon class="st1" points="105.4,52.8 100.4,55.3 97.5,55.1 97.4,56.3 100.4,56.5 105,59.6 105.1,58.2 101.6,56 105.3,54.2 	"/>
	<polygon class="st1" points="95.8,65.4 100.1,69.2 94.4,69.3 94.3,69.5 100.8,74.8 101.2,73.6 96.8,70.3 102.5,70.1 102.5,69.9 
		98.2,66.3 103.8,66.4 104.2,65.2 95.8,65.2 	"/>
	<polygon class="st1" points="90.2,77.8 91.1,78.3 93,75.2 95,76.4 93.3,79.3 94.2,79.8 95.9,76.9 97.8,78 96,81.1 96.9,81.6 
		99.3,77.6 92.6,73.6 	"/>
	<path class="st1" d="M87.1,81.8c-1.1,1.2-1.2,2.5-0.1,3.5c0.7,0.6,1.5,0.7,2.4,0.1c-0.3,0.8,0,1.4,0.6,1.9c1,0.8,2.1,0.6,3.2-0.7
		l1.6-1.9l-5.9-5L87.1,81.8z M93.3,84.9l-0.8,1c-0.6,0.7-1.3,0.9-1.8,0.4c-0.6-0.5-0.5-1.2,0.1-1.9l0.8-1L93.3,84.9z M90.8,82.8
		l-1,1.2c-0.6,0.7-1.3,0.9-1.9,0.4c-0.6-0.5-0.5-1.2,0.1-1.9l1-1.2L90.8,82.8z"/>
	<path class="st1" d="M82.6,89.4c-0.5-0.5-0.4-1.3,0.4-1.9c0.6-0.5,1.3-0.8,2.2-0.7l-0.1-1.1c-0.9,0-1.9,0.1-2.9,1
		c-1.2,1.1-1.5,2.5-0.5,3.6c1.9,2.1,4.2-1.5,5.4-0.2c0.5,0.5,0.3,1.3-0.4,1.9c-0.6,0.5-1.2,0.7-1.9,0.7l0.1,1.1
		c0.8,0,1.7-0.2,2.5-0.9c1.2-1.1,1.4-2.6,0.6-3.6C86.1,87,83.8,90.7,82.6,89.4z"/>
	
		<rect x="79.8" y="89.4" transform="matrix(0.8219 -0.5696 0.5696 0.8219 -38.8174 62.3815)" class="st1" width="1.2" height="7.8"/>
	<polygon class="st1" points="77.1,98.6 74,92.7 72.9,93.2 76,99.1 73.9,100.2 74.4,101.2 79.7,98.4 79.2,97.5 	"/>
	<polygon class="st1" points="64.4,96.6 64.8,97.6 68.2,96.5 69,98.7 65.8,99.8 66.1,100.8 69.3,99.8 70,101.8 66.6,102.9 
		66.9,103.9 71.4,102.5 69,95.1 	"/>
	<path class="st1" d="M54.7,67.4L54.7,67.4c0.9-1.8,1.4-3.7,1.4-5.8c0-1.6-0.3-3.2-0.9-4.7c-0.6-1.5-1.4-2.8-2.4-3.8
		c-1-1.1-2.3-2-3.6-2.6c-0.5-0.2-1-0.4-1.5-0.5l20-10.3L36.9,23.7v6.5l18.2,9.4L36.9,49v6.2l7.8,0c0.8,0,1.5,0.2,2.2,0.5
		c0.7,0.3,1.3,0.8,1.8,1.4c0.5,0.6,0.9,1.3,1.2,2c0.3,0.8,0.5,1.6,0.5,2.5c0,0.9-0.2,1.8-0.5,2.6c-0.3,0.8-0.7,1.5-1.2,2.1
		c-0.5,0.6-1.1,1-1.8,1.4c-0.3,0.1-0.5,0.2-0.8,0.3L45.3,68v5.5l7.9,8.5l3.9-4.2l-5.9-6.3C52.7,70.4,53.8,69,54.7,67.4z"/>
</g>
</svg>
